<svg width="458" height="327" viewBox="0 0 458 327" fill="none" xmlns="http://www.w3.org/2000/svg">
<g clip-path="url(#clip0)">
<path d="M394.447 221.505C389.202 254.582 375.781 269.731 372.169 273.195C371.893 274.431 369.003 273.642 360.402 273.859C308.631 273.859 93.919 273.881 93.8412 273.881C93.8488 273.889 82.4877 257.132 79.919 234.21C74.1948 184.699 94.9943 171.738 134.338 165.096C158.091 159.653 181.878 143.208 193.778 115.87C201.759 94.8428 217.943 78.6589 242.668 81.8097C280.128 89.7994 285.087 116.957 314.474 140.845C357.898 175.13 398.709 188.24 394.447 221.505Z" fill="url(#paint0_linear)"/>
<path d="M244.189 327.231C244.189 327.231 253.75 248.694 175.351 247.846C96.9528 246.999 52.1535 243.044 39.0416 189.084C25.9296 135.125 102.7 159.547 173.445 196.775C244.189 234.003 324.227 201.515 305.379 97.8343C286.53 -5.8462 178.766 -18.1353 189.693 19.7208C200.619 57.5769 310.159 128.204 259.265 178.278C211.202 225.568 17.0517 19.7208 17.0517 19.7208M311.276 33.944C372.403 104.196 410.629 174.779 359.317 208.267C238.155 287.342 266.862 313.671 266.862 313.671C266.862 313.671 277.379 331.61 295.954 305.619C314.53 279.628 325.595 273 386.715 253.855C447.835 234.71 442.918 144.589 442.918 144.589L311.276 33.944Z" stroke="white" stroke-width="7" stroke-miterlimit="10"/>
<path d="M244.189 327.231C244.189 327.231 253.75 248.694 175.351 247.846C96.9528 246.999 52.1535 243.044 39.0416 189.084C25.9296 135.125 102.7 159.547 173.445 196.775C244.189 234.003 324.227 201.515 305.378 97.8343C286.53 -5.8462 178.766 -18.1353 189.693 19.7208C200.619 57.5769 310.159 128.204 259.265 178.278C211.202 225.568 17.0517 19.7208 17.0517 19.7208" stroke="white" stroke-width="7" stroke-miterlimit="10"/>
<path d="M79.7289 189.137C74.2583 194.499 64.4374 224.678 82.5798 232.866C82.5798 232.866 89.8774 236.337 89.5766 247.048C89.2759 257.758 99.3145 277.29 116.236 270.218C133.158 263.145 130.516 239.14 124.737 230.848C118.958 222.555 120.022 222.554 117.587 214.524C115.153 206.495 114.848 205.96 110.795 206.947C106.742 207.934 108.164 218.553 111.003 224.796C113.843 231.04 108.979 233.724 107.56 232.476C106.141 231.229 106.341 222.839 97.9292 220.529C89.5173 218.22 90.6285 207.687 91.1335 201.707C91.3377 199.29 91.0697 196.962 90.6785 195.045C90.1476 195.421 89.535 195.585 88.9343 195.454C87.591 195.16 86.8234 193.504 87.2198 191.756C87.4434 190.769 87.9907 189.964 88.6663 189.503C87.9782 188.69 86.7195 187.487 85.0668 187.125C83.5677 186.797 81.7449 187.161 79.7289 189.137Z" fill="url(#paint1_linear)"/>
<g style="mix-blend-mode:overlay" opacity="0.34">
<g style="mix-blend-mode:overlay" opacity="0.34">
<path d="M119.1 268.44C118.645 266.32 117.999 264.278 117.033 262.167C115.71 256.294 116.222 251.108 116.723 246.052C117.341 239.81 117.925 233.914 115.184 227.164C111.068 217.032 111.701 209.409 112.321 206.092C112.058 206.097 111.77 206.13 111.453 206.185C110.804 209.748 110.285 217.37 114.431 227.577C117.083 234.105 116.51 239.88 115.905 245.995C115.477 250.319 115.039 254.735 115.714 259.597C112.302 253.593 106.079 246.621 94.323 235.619C82.7794 224.816 80.4697 211.508 80.5648 202.248C80.6371 195.186 82.0765 189.339 82.9395 186.45C82.634 186.514 82.3205 186.611 81.9989 186.749C81.1107 189.858 79.8153 195.514 79.7417 202.245C79.6386 211.708 81.99 225.305 93.7764 236.335C107.176 248.875 113.28 256.2 116.23 262.429C116.696 264.495 117.383 266.646 118.371 268.909L118.378 268.905C118.379 268.91 118.38 268.916 118.381 268.922C118.627 268.767 118.867 268.609 119.102 268.447L119.1 268.44Z" fill="#690058"/>
</g>
</g>
<path d="M63.3329 203.17C58.567 211.622 69.6624 220.718 78.559 223.621C87.4559 226.525 92.1382 230.031 99.5124 252.383C106.887 274.735 122.39 267.854 125.761 265.526C129.132 263.199 133.452 249.954 126.103 236.146C118.755 222.337 110.881 224.92 108.766 206.769C106.651 188.619 97.0607 198.004 95.0228 205.483C92.9849 212.961 89.9902 212.904 83.577 207.315C81.5081 205.512 79.8954 204.146 78.6567 203.12C78.7333 203.955 78.7449 204.759 78.6314 205.478C78.5553 205.96 78.3459 206.38 78.0543 206.696C77.6296 207.155 77.0307 207.393 76.4166 207.281C75.3798 207.091 74.6909 205.977 74.878 204.791C75.0187 203.898 74.6058 201.841 74.3325 200.479C74.2778 200.208 74.227 199.953 74.1795 199.709C72.7533 198.893 69.8906 197.715 67.0337 199.236C65.7559 199.916 64.4797 201.136 63.3329 203.17Z" fill="url(#paint2_linear)"/>
<g style="mix-blend-mode:overlay" opacity="0.34">
<g style="mix-blend-mode:overlay" opacity="0.34">
<path d="M99.2702 196.996C99.2065 203.899 99.8305 225.587 109.273 243.48C107.453 240.999 105.545 238.18 103.573 234.978C90.3577 213.518 67.7407 205.992 62.323 204.454C62.2409 204.773 62.1728 205.091 62.1286 205.409C67.4844 206.931 89.8388 214.372 102.885 235.559C113.867 253.392 122.875 259.72 127.112 261.878C127.238 261.589 127.36 261.286 127.478 260.969C126.217 260.321 124.504 259.285 122.419 257.648C120.153 255.87 117.208 253.18 113.798 249.202C100.419 230.146 100.002 203.021 100.118 196.34C99.8323 196.533 99.549 196.753 99.2702 196.996Z" fill="#690058"/>
</g>
</g>
<path d="M117.817 265.815L116.294 266.57L87.725 204.856L104.583 172.301L106.071 173.125L89.6183 204.9L117.817 265.815Z" fill="#253138"/>
<path d="M86.6755 206.222C87.3934 207.362 88.8693 207.685 89.9718 206.942C91.0746 206.2 91.3863 204.674 90.6684 203.533C89.9502 202.393 88.4746 202.071 87.3718 202.813C86.2693 203.556 85.9576 205.082 86.6755 206.222Z" fill="#2D3092"/>
<path d="M103.051 174.245C103.769 175.386 105.245 175.708 106.347 174.966C107.45 174.223 107.762 172.697 107.044 171.557C106.326 170.417 104.85 170.094 103.747 170.836C102.645 171.579 102.333 173.105 103.051 174.245Z" fill="#2D3092"/>
<path d="M120.357 170.922L112.262 186.124L105.79 180.896L103.853 179.329C102.697 178.394 102.368 176.73 103.077 175.401L106.691 168.623C107.399 167.295 108.935 166.695 110.315 167.206L112.631 168.063L120.357 170.922Z" fill="#00A0ED"/>
<path d="M120.358 170.922L112.263 186.124L105.79 180.896L112.631 168.063L120.358 170.922Z" fill="#0000C6" fill-opacity="0.2"/>
<path d="M136.149 176.012L124.857 197.21C124.12 198.593 122.353 198.952 121.165 197.961L111.912 190.24C109.12 187.911 108.347 183.845 110.078 180.596L114.674 171.969C116.405 168.72 120.141 167.223 123.536 168.419L134.79 172.383C136.236 172.892 136.886 174.628 136.149 176.012Z" fill="#00A0ED"/>
<path d="M131.237 271.91H102.347C103.377 266.458 107.996 262.524 113.367 262.524H120.217C125.588 262.524 130.208 266.458 131.237 271.91Z" fill="url(#paint3_linear)"/>
<path d="M348.902 242.034L346.533 272.836H330.147L327.778 242.034H348.902Z" fill="url(#paint4_linear)"/>
<path d="M349.627 244.207H326.694C326.376 244.207 326.118 243.94 326.118 243.611V240.311C326.118 239.983 326.376 239.716 326.694 239.716H349.627C349.945 239.716 350.202 239.983 350.202 240.311V243.611C350.202 243.94 349.945 244.207 349.627 244.207Z" fill="#585050"/>
<path d="M348.552 239.716H327.769L328.759 236.545C328.893 236.117 329.278 235.827 329.713 235.827H346.608C347.043 235.827 347.428 236.117 347.562 236.545L348.552 239.716Z" fill="#474141"/>
<path d="M340.702 237.544H336.042C335.588 237.544 335.22 237.163 335.22 236.694V235.828H341.524V236.694C341.524 237.163 341.156 237.544 340.702 237.544Z" fill="#4E4E4E"/>
<path d="M340.997 210.795C342.352 216.032 344.681 216.64 345.855 219.372C347.394 222.98 346.572 228.812 345.031 230.733C344.835 227.225 345.784 225.502 343.374 220.32C341.435 216.118 340.535 215.832 340.997 210.795Z" fill="white" fill-opacity="0.7"/>
<path d="M330.257 208.109C331.612 213.346 333.941 213.954 335.115 216.685C336.654 220.294 335.832 226.125 334.291 228.047C334.095 224.538 335.044 222.815 332.634 217.633C330.695 213.431 329.795 213.146 330.257 208.109Z" fill="white" fill-opacity="0.7"/>
<path d="M335.089 207.408C336.751 213.832 339.608 214.578 341.049 217.929C342.936 222.356 341.928 229.509 340.037 231.866C339.797 227.562 340.962 225.448 338.005 219.092C335.626 213.937 334.523 213.587 335.089 207.408Z" fill="white" fill-opacity="0.7"/>
<path d="M253.71 174.243C253.71 174.243 238.03 178.153 228.413 185.975C218.796 193.796 212.191 233.554 212.191 233.554C212.191 233.554 206.822 234.858 207.78 240.072C207.78 240.072 216.754 238.807 221.405 248.753C222.54 251.165 223.409 254.241 223.838 258.152C223.838 258.152 228.577 257.839 228.88 253.59C228.88 253.59 233.14 249.183 234.186 240.854C234.211 240.698 234.236 240.554 234.249 240.398C234.249 240.398 234.722 263.158 232.352 271.683L298.698 271.73L312.541 271.683C312.541 271.683 313.847 267.509 313.115 264.744C313.115 264.744 317.984 257.799 313.026 249.406C313.026 249.406 314.123 202.099 307.821 190.863C301.519 179.627 269.856 173.109 269.856 173.109L253.71 174.243Z" fill="url(#paint5_linear)"/>
<g style="mix-blend-mode:multiply">
<g style="mix-blend-mode:multiply">
<path d="M234.11 240.797C233.064 249.126 228.803 253.532 228.803 253.532C228.501 257.782 223.762 258.095 223.762 258.095C223.333 254.184 222.463 251.108 221.329 248.696C223.837 246.193 226.686 242.322 228.337 236.651C231.677 225.232 229.547 212.822 229.396 211.936C232.118 222.612 233.605 235.713 234.11 240.797Z" fill="#EAC1B0" fill-opacity="0.3"/>
</g>
</g>
<g style="mix-blend-mode:multiply">
<g style="mix-blend-mode:multiply">
<path d="M312.95 249.349C312.95 249.349 299.004 241.351 289.122 248.918C289.468 241.132 289.34 223.656 282.851 207.915C282.851 207.915 284.269 239.851 271.664 248.813C259.06 257.775 237.632 255.982 232.276 271.625H312.465C313.261 268.883 313.388 266.529 313.038 264.686C313.038 264.686 317.907 258.465 312.95 249.349Z" fill="#EAC1B0" fill-opacity="0.3"/>
</g>
</g>
<path d="M275.265 262.511C275.265 262.511 289.546 252.18 304.9 255.864C318.585 259.148 316.221 269.383 312.465 271.625H274.085L275.265 262.511Z" fill="#786259"/>
<path d="M274.869 264.947C274.869 264.947 270.058 260.478 266.501 255.849C266.134 255.372 265.574 255.053 264.934 254.956C262.555 254.597 256.481 253.74 252.102 253.634C251.533 253.62 251.009 253.975 250.859 254.482C250.678 255.094 250.54 255.948 250.807 256.753C250.807 256.753 251.504 258.06 252.704 259.105C252.704 259.105 251.92 259.719 251.769 260.072C251.617 260.425 251.731 261.727 252.319 262.175C252.319 262.175 251.977 262.468 251.907 263.088C251.836 263.708 252.162 264.716 252.635 264.927C253.109 265.139 254.035 265.353 254.035 265.353C254.035 265.353 253.381 265.968 253.253 266.47C253.125 266.971 253.745 267.952 254.279 268.223C254.813 268.493 258.961 269.033 259.807 268.981C260.653 268.929 262.81 267.589 262.81 267.589C262.81 267.589 268.083 271.419 273.123 272.202L274.869 264.947Z" fill="#786259"/>
<path d="M248.792 257.279L255.273 257.979C255.273 257.979 252.436 259.196 250.835 260.032C250.835 260.032 248.805 258.295 248.792 257.279Z" fill="#7C7572"/>
<path d="M264.132 268.954L262.06 267.781L258.379 268.988C258.379 268.988 261.468 268.024 263.617 269.246L264.132 268.954Z" fill="#CE9F8D"/>
<path d="M267.659 253.678C267.659 253.678 264.459 259.518 265.852 262.999C267.245 266.48 273.645 271.859 273.645 271.859C273.645 271.859 274.43 267.968 275.254 263.881C275.254 263.881 269.907 257.457 267.659 253.678Z" fill="#786259"/>
<path d="M251.711 263.265L257.681 260.822C257.852 260.752 258.042 260.83 258.105 260.995C258.168 261.16 258.081 261.351 257.91 261.42C257.901 261.424 257.891 261.428 257.882 261.431L251.74 263.355C251.714 263.363 251.687 263.349 251.68 263.324C251.674 263.3 251.687 263.274 251.711 263.265Z" fill="#8F6E61"/>
<path d="M254.328 266.786L259.952 264.207C260.12 264.13 260.313 264.202 260.382 264.367C260.451 264.532 260.371 264.728 260.203 264.805C260.193 264.81 260.183 264.814 260.173 264.817L254.351 266.851C254.333 266.857 254.313 266.848 254.308 266.83C254.303 266.813 254.311 266.794 254.328 266.786Z" fill="#8A7A73"/>
<path d="M207.704 240.258L186.875 267.912L207.209 267.85L223.762 258.339C223.762 258.339 227.398 238.88 207.704 240.258Z" fill="#786259"/>
<path d="M202.739 267.639C202.594 267.658 189.145 268.181 189.145 268.181C189.145 268.181 187.999 260.428 188.2 260.467C188.4 260.506 198.753 258.288 199.301 258.368C199.849 258.448 203.809 266.79 203.809 266.79L202.739 267.639Z" fill="#312A28"/>
<path d="M204.81 264.163L201.996 265.337C201.068 265.724 200.551 266.751 200.776 267.759C200.92 268.4 201.531 268.806 202.155 268.674L204.804 268.113L205.797 267.955C206.278 267.878 206.671 267.519 206.803 267.035C206.981 266.387 207.203 265.549 207.21 265.367C207.221 265.062 205.007 259.119 205.007 259.119L204.81 264.163Z" fill="#443835"/>
<path d="M188.131 257.81L188.771 257.659C189.089 257.584 189.376 257.404 189.587 257.147L190.287 256.294C190.581 255.936 191.016 255.733 191.471 255.744L192.326 255.762C192.794 255.773 193.24 255.558 193.533 255.182L193.949 254.65C194.278 254.229 194.793 254.014 195.312 254.082L196.981 254.298C197.248 254.333 197.519 254.293 197.767 254.183L199.803 253.275C199.803 253.275 204.969 255.079 205.25 260.966L204.986 263.692C204.925 264.326 204.467 264.843 203.862 264.961L201.827 265.361C201.365 265.452 200.912 265.163 200.784 264.695L199.768 260.976L200.379 264.746C200.487 265.415 200.076 266.056 199.438 266.213L197.846 266.605C197.169 266.772 196.491 266.334 196.34 265.632L195.333 260.95L195.929 265.813C196.008 266.457 195.567 267.046 194.944 267.127L193.444 267.324C192.919 267.393 192.423 267.056 192.277 266.529L190.788 261.178L191.852 266.486C191.957 267.007 191.658 267.524 191.164 267.676L189.882 268.07C189.323 268.242 188.733 267.92 188.555 267.346L186.713 261.423C186.536 260.854 186.546 260.241 186.741 259.679L187.044 258.806C187.218 258.304 187.628 257.928 188.131 257.81Z" fill="#443835"/>
<path d="M272.712 175.036C270.065 183.364 265.724 194.829 256.15 194.586C247.791 194.375 249.101 184.029 250.88 178.367C251.144 177.526 250.97 178.001 251.17 177.443C250.283 172.154 249.971 166.707 249.528 161.332C257.027 158.019 264.547 154.823 272.006 151.375C272.034 152.592 272.04 152.653 272.046 153.997C272.051 155.341 272.029 151.494 272.043 154.858C272.058 158.223 272.164 169.951 272.712 175.036Z" fill="#7D6A63"/>
<path d="M250.975 177.959C250.929 178.27 251.108 177.555 251.161 177.473C250.295 172.118 249.966 166.724 249.528 161.332C257.037 158.001 264.526 154.86 272.022 151.344C272.022 151.344 272.27 151.527 271.712 155.483C270.521 161.123 264.338 182.292 250.975 177.959Z" fill="#786259"/>
<path d="M270.391 150.855C268.302 147.154 268.959 141.346 272.047 139.429C267.723 142.114 259.036 138.416 259.036 138.416C259.036 138.416 261.439 138.155 262.594 136.011C262.594 136.011 251.839 135.256 249.533 136.125C249.533 136.125 250.005 134.039 252.478 132.869C249.833 132.365 247.567 132.358 247.036 133.611C245.614 136.967 241.576 157.729 246.571 164.276C251.566 170.823 261.055 165.456 264.984 162.594C268.913 159.731 268.065 158.058 270.548 155.367C273.141 155.053 273.954 155.666 275.826 151.139C277.698 146.611 274.311 144.146 270.391 150.855Z" fill="#7D6966"/>
<path d="M222.39 267.85H150.239C149.803 267.85 149.45 268.216 149.45 268.667V271.101C149.45 271.551 149.803 271.917 150.239 271.917H222.39C222.826 271.917 223.179 271.551 223.179 271.101V268.667C223.179 268.216 222.826 267.85 222.39 267.85Z" fill="#182960"/>
<path d="M168.76 211.911H107.599C104.831 211.911 102.928 214.812 103.934 217.501L121.798 265.297C122.387 266.872 123.842 267.909 125.464 267.909H188.783C190.513 267.909 191.702 266.096 191.074 264.415L172.425 214.523C171.837 212.948 170.382 211.911 168.76 211.911Z" fill="#42AAFF"/>
<path d="M107.213 213.069C104.481 213.069 102.603 215.91 103.595 218.544L121.231 265.348C121.812 266.89 123.249 267.906 124.849 267.906H187.358C189.066 267.906 190.24 266.13 189.62 264.485L171.21 215.627C170.629 214.085 169.192 213.069 167.591 213.069H107.213Z" fill="url(#paint6_linear)"/>
<g style="mix-blend-mode:overlay" opacity="0.66">
<g style="mix-blend-mode:overlay" opacity="0.66">
<path d="M149.368 240.919C150.836 244.615 150.023 248.463 147.553 249.512C145.082 250.561 141.89 248.415 140.422 244.718C138.954 241.022 139.767 237.174 142.237 236.125C144.708 235.076 147.9 237.222 149.368 240.919Z" fill="#E3EBF7"/>
</g>
</g>
<path d="M190.458 267.85H124.024C123.59 267.85 123.238 268.214 123.238 268.662V271.105C123.238 271.553 123.59 271.917 124.024 271.917H190.458C190.892 271.917 191.244 271.553 191.244 271.105V268.662C191.244 268.214 190.892 267.85 190.458 267.85Z" fill="#3756C2"/>
<path d="M386.837 276.246H79.9207V271.869H386.837V276.246ZM386.837 276.246H318.773V271.869H386.837V276.246Z" fill="#29C3FF"/>
<path d="M386.837 276.246H318.773V271.869H386.837V276.246Z" fill="#299FFF"/>
<path d="M296.191 268.285H231.488V271.869H296.191V268.285ZM276.234 268.285H296.191V271.869H276.234V268.285Z" fill="#ABDAF7"/>
<path d="M276.234 268.285H296.191V271.869H276.234V268.285Z" fill="#6FB1DD"/>
<path d="M262.428 127.58C266.044 127.785 269.074 129.504 271.421 132.901C273.358 135.744 273.095 151.502 271.421 151.711C270.784 152.332 268.643 148.932 268.643 148.932L268.643 147.392C266.544 142.173 269.718 139.73 262.428 142.704C259.662 143.832 255.687 139.043 254.346 138.038C253.006 137.032 249.955 134.706 245.732 136.401C244.808 137.795 244.876 135.655 244.771 138.843C240.085 130.736 251.123 128.594 253.365 127.868C259.302 126.558 258.812 127.374 262.428 127.58Z" fill="#1E1E1E"/>
<g filter="url(#filter0_b)">
<path d="M333.585 248.694C333.637 248.771 333.668 248.849 333.678 248.926C333.692 248.999 333.658 249.068 333.574 249.134C333.548 249.155 333.47 249.186 333.342 249.227C333.215 249.259 333.087 249.296 332.958 249.337C332.903 249.364 332.823 249.414 332.719 249.486C332.621 249.555 332.551 249.601 332.51 249.625C332.5 249.633 332.439 249.685 332.327 249.781C332.212 249.871 332.078 249.981 331.924 250.11C331.776 250.234 331.631 250.357 331.488 250.477C331.346 250.588 331.225 250.692 331.123 250.789C331.109 250.901 331.137 251.023 331.206 251.155C331.277 251.32 331.359 251.501 331.454 251.698C331.554 251.891 331.658 252.088 331.767 252.291C331.876 252.485 331.981 252.678 332.081 252.871C332.181 253.063 332.27 253.236 332.346 253.387C332.54 253.71 332.751 254.065 332.979 254.454C333.203 254.837 333.434 255.191 333.67 255.514C333.813 255.707 333.928 255.853 334.015 255.954C334.104 256.046 334.224 256.134 334.375 256.219C334.406 256.237 334.434 256.261 334.459 256.293C334.479 256.319 334.502 256.348 334.527 256.38C334.612 256.499 334.642 256.586 334.616 256.64C334.6 256.695 334.548 256.752 334.46 256.813C334.375 256.888 334.299 256.922 334.234 256.914C334.168 256.906 334.052 256.849 333.884 256.743C333.818 256.702 333.744 256.646 333.663 256.574C333.577 256.497 333.508 256.42 333.456 256.342C333.291 256.132 333.161 255.967 333.067 255.846C332.968 255.721 332.889 255.626 332.831 255.561C332.773 255.488 332.734 255.438 332.714 255.412C332.694 255.376 332.678 255.351 332.666 255.335C332.654 255.319 332.602 255.237 332.511 255.088C332.419 254.939 332.315 254.763 332.197 254.559C332.075 254.349 331.947 254.132 331.813 253.907C331.675 253.676 331.557 253.477 331.458 253.308C331.288 252.993 331.122 252.679 330.96 252.365C330.804 252.047 330.642 251.721 330.473 251.387C330.365 251.454 330.234 251.562 330.078 251.709C329.928 251.852 329.793 251.983 329.674 252.102C329.561 252.216 329.445 252.328 329.327 252.437C329.215 252.543 329.127 252.62 329.064 252.669C328.987 252.721 328.907 252.75 328.826 252.754C328.75 252.754 328.785 252.519 328.725 252.507C328.666 252.486 328.805 252.63 328.744 252.585C328.763 252.63 328.786 252.688 328.744 252.585C328.751 252.529 328.705 252.557 328.725 252.507C328.741 252.452 328.693 252.509 328.72 252.488C328.801 252.408 328.606 252.058 328.72 251.986C328.838 251.91 328.942 251.833 329.033 251.754C329.086 251.703 329.15 251.644 329.225 251.577C329.301 251.501 329.364 251.43 329.415 251.365C329.521 251.274 329.646 251.163 329.79 251.033C329.929 250.898 330.051 250.773 330.156 250.657C330.294 250.532 330.464 250.386 330.664 250.22C330.865 250.055 331.062 249.901 331.255 249.758C331.453 249.611 331.622 249.487 331.763 249.385C331.905 249.274 331.983 249.212 331.999 249.2C332.02 249.183 332.105 249.129 332.254 249.038C332.402 248.947 332.569 248.868 332.753 248.8C332.932 248.726 333.099 248.668 333.251 248.625C333.399 248.576 333.511 248.599 333.585 248.694Z" fill="white"/>
<path d="M334.476 249.857C334.544 249.965 334.556 250.056 334.514 250.132C334.467 250.202 334.42 250.256 334.373 250.293C334.275 250.362 334.151 250.382 334.002 250.355C333.854 250.327 333.745 250.243 333.677 250.102C333.702 250.048 333.744 249.998 333.802 249.953C333.861 249.899 333.905 249.864 333.936 249.848C334.034 249.779 334.128 249.731 334.217 249.704C334.301 249.672 334.388 249.723 334.476 249.857ZM337.616 252.923C337.636 252.949 337.643 252.99 337.637 253.046C337.631 253.093 337.629 253.145 337.632 253.202C337.638 253.231 337.649 253.273 337.667 253.328C337.68 253.377 337.685 253.427 337.684 253.479C337.678 253.687 337.65 253.879 337.6 254.053C337.546 254.222 337.448 254.405 337.306 254.602C337.271 254.654 337.219 254.707 337.151 254.761C337.062 254.831 336.927 254.886 336.746 254.926C336.566 254.965 336.351 254.939 336.101 254.847C336.028 254.819 335.948 254.777 335.86 254.718C335.773 254.651 335.687 254.574 335.603 254.488C335.518 254.402 335.434 254.311 335.351 254.215C335.273 254.115 335.203 254.022 335.143 253.933C335.022 253.757 334.903 253.562 334.786 253.349C334.675 253.131 334.572 252.907 334.476 252.677C334.38 252.447 334.298 252.224 334.23 252.006C334.157 251.784 334.104 251.576 334.07 251.382C334.065 251.343 334.09 251.299 334.143 251.248C334.198 251.188 334.241 251.146 334.273 251.121C334.345 251.073 334.424 251.049 334.509 251.05C334.6 251.047 334.658 251.073 334.685 251.129C334.693 251.139 334.707 251.183 334.726 251.262C334.75 251.336 334.775 251.427 334.8 251.534C334.83 251.638 334.86 251.746 334.889 251.858C334.919 251.962 334.949 252.049 334.978 252.119C335.012 252.227 335.059 252.352 335.118 252.492C335.178 252.622 335.243 252.758 335.311 252.9C335.38 253.032 335.448 253.161 335.513 253.287C335.58 253.405 335.639 253.502 335.691 253.58C335.727 253.636 335.788 253.72 335.875 253.83C335.961 253.94 336.06 254.045 336.172 254.144C336.288 254.238 336.41 254.308 336.538 254.352C336.666 254.396 336.784 254.379 336.893 254.302C336.981 254.242 337.053 254.155 337.11 254.044C337.162 253.926 337.205 253.808 337.238 253.689C337.272 253.569 337.294 253.463 337.305 253.369C337.318 253.266 337.326 253.201 337.329 253.173C337.328 253.139 337.334 253.093 337.346 253.032C337.363 252.968 337.381 252.904 337.398 252.839L337.514 252.761L337.616 252.923Z" fill="white"/>
<path d="M343.139 248.619C343.172 248.661 343.188 248.741 343.188 248.86C343.193 248.974 343.19 249.1 343.178 249.236C343.167 249.363 343.153 249.48 343.135 249.587C343.123 249.69 343.116 249.746 343.115 249.756C343.106 249.788 343.094 249.831 343.078 249.886C343.063 249.932 343.044 249.968 343.022 249.994C342.995 250.024 342.967 250.058 342.938 250.097C342.914 250.142 342.889 250.187 342.865 250.231C342.835 250.28 342.789 250.329 342.726 250.378C342.668 250.423 342.626 250.456 342.6 250.477C342.448 250.596 342.288 250.683 342.12 250.739C341.961 250.796 341.799 250.821 341.633 250.815C341.464 250.804 341.303 250.761 341.15 250.686C341.003 250.606 340.87 250.49 340.751 250.338C340.702 250.275 340.642 250.178 340.573 250.046C340.504 249.905 340.436 249.763 340.368 249.622C340.304 249.477 340.244 249.346 340.187 249.23C340.135 249.11 340.097 249.029 340.074 248.988C340.036 248.95 340.008 248.909 339.989 248.864C339.976 248.815 339.949 248.769 339.906 248.726C339.917 248.912 339.936 249.126 339.964 249.367C339.988 249.602 340.05 249.871 340.151 250.173C340.187 250.272 340.227 250.389 340.273 250.522C340.314 250.651 340.351 250.779 340.383 250.906C340.387 250.911 340.402 250.968 340.426 251.075C340.457 251.179 340.48 251.3 340.496 251.44C340.514 251.57 340.519 251.701 340.513 251.834C340.502 251.96 340.463 252.051 340.394 252.104C340.331 252.154 340.266 252.184 340.198 252.194C340.126 252.2 340.058 252.194 339.994 252.177C339.929 252.159 339.871 252.133 339.818 252.098C339.765 252.064 339.723 252.025 339.69 251.983C339.674 251.953 339.648 251.914 339.611 251.867C339.575 251.81 339.524 251.74 339.459 251.656C339.397 251.577 339.341 251.49 339.291 251.394C339.246 251.293 339.198 251.199 339.147 251.113C338.961 250.843 338.795 250.571 338.648 250.297C338.5 250.023 338.358 249.749 338.22 249.476L338.214 249.468L338.19 249.487C338.192 249.587 338.201 249.706 338.218 249.846C338.235 249.976 338.254 250.119 338.273 250.273C338.297 250.423 338.326 250.579 338.359 250.739C338.388 250.895 338.417 251.041 338.448 251.177C338.456 251.273 338.484 251.395 338.532 251.544C338.582 251.683 338.625 251.818 338.661 251.951C338.71 252.133 338.768 252.337 338.836 252.563C338.899 252.785 338.956 252.986 339.005 253.168C339.01 253.207 338.995 253.248 338.961 253.291C338.932 253.34 338.901 253.376 338.87 253.401C338.749 253.496 338.641 253.525 338.546 253.49C338.455 253.45 338.379 253.391 338.318 253.313C338.309 253.302 338.285 253.271 338.244 253.218C338.198 253.161 338.152 253.096 338.103 253.023C338.051 252.946 337.994 252.867 337.932 252.789C337.876 252.706 337.828 252.629 337.789 252.558C337.754 252.501 337.704 252.422 337.64 252.319C337.577 252.216 337.51 252.104 337.439 251.981C337.37 251.849 337.295 251.717 337.217 251.584C337.139 251.441 337.067 251.307 337.002 251.18C336.906 250.993 336.827 250.839 336.766 250.717C336.701 250.591 336.646 250.477 336.601 250.377C336.561 250.272 336.526 250.173 336.494 250.079C336.459 249.98 336.418 249.868 336.371 249.743C336.36 249.718 336.35 249.684 336.341 249.64C336.333 249.587 336.327 249.536 336.324 249.488C336.325 249.436 336.328 249.392 336.333 249.354C336.339 249.307 336.352 249.276 336.373 249.259C336.436 249.21 336.523 249.192 336.636 249.206C336.665 249.242 336.702 249.285 336.749 249.333C336.791 249.376 336.82 249.413 336.835 249.443C336.955 249.705 337.062 249.96 337.155 250.209C337.244 250.452 337.355 250.696 337.487 250.94C337.556 251.072 337.614 251.188 337.658 251.288C337.704 251.379 337.746 251.465 337.784 251.546C337.827 251.622 337.868 251.696 337.907 251.767C337.947 251.829 337.991 251.896 338.039 251.968C338.065 251.948 338.072 251.934 338.058 251.928C338.05 251.917 338.047 251.903 338.049 251.884C338.023 251.71 337.992 251.531 337.958 251.346C337.923 251.161 337.891 250.991 337.863 250.836C337.83 250.675 337.793 250.493 337.751 250.288C337.711 250.074 337.675 249.861 337.643 249.648C337.617 249.431 337.603 249.218 337.6 249.009C337.597 248.8 337.617 248.615 337.66 248.454C337.668 248.431 337.682 248.411 337.703 248.395C337.729 248.374 337.758 248.351 337.789 248.327C337.926 248.22 338.036 248.188 338.121 248.232C338.202 248.27 338.278 248.334 338.347 248.423C338.36 248.439 338.385 248.482 338.424 248.553C338.459 248.619 338.497 248.7 338.537 248.795C338.579 248.881 338.621 248.971 338.661 249.066C338.702 249.162 338.735 249.242 338.76 249.306C338.918 249.691 339.081 250.034 339.248 250.334C339.421 250.631 339.591 250.917 339.757 251.194L339.82 251.258L339.836 251.246C339.841 251.242 339.846 251.226 339.849 251.198C339.825 251.081 339.794 250.949 339.755 250.801C339.716 250.645 339.674 250.488 339.626 250.33C339.58 250.163 339.537 249.994 339.496 249.823C339.45 249.646 339.414 249.48 339.385 249.325C339.379 249.296 339.358 249.198 339.321 249.032C339.289 248.862 339.262 248.676 339.239 248.474C339.212 248.266 339.2 248.073 339.202 247.893C339.21 247.708 339.251 247.587 339.325 247.53C339.346 247.513 339.376 247.498 339.416 247.484C339.457 247.46 339.499 247.439 339.544 247.421C339.589 247.403 339.636 247.392 339.684 247.388C339.732 247.385 339.772 247.387 339.804 247.396C339.975 247.592 340.117 247.794 340.229 248.003C340.337 248.206 340.44 248.418 340.537 248.638C340.639 248.855 340.747 249.075 340.863 249.298C340.978 249.52 341.122 249.742 341.295 249.962C341.418 250.12 341.556 250.22 341.707 250.262C341.86 250.294 342.02 250.245 342.188 250.113C342.257 250.06 342.328 249.978 342.403 249.869C342.483 249.755 342.558 249.629 342.627 249.49C342.692 249.346 342.75 249.203 342.8 249.062C342.846 248.916 342.872 248.781 342.878 248.658L343.027 248.541C343.055 248.545 343.075 248.554 343.088 248.57C343.101 248.576 343.118 248.593 343.139 248.619Z" fill="white"/>
</g>
<g filter="url(#filter1_b)">
<path d="M335.618 263.063C335.662 263.122 335.684 263.184 335.684 263.251C335.685 263.308 335.663 263.358 335.619 263.399C335.473 263.549 335.332 263.705 335.194 263.866C335.052 264.021 334.897 264.17 334.728 264.312C334.758 264.407 334.826 264.577 334.933 264.821C335.042 265.056 335.131 265.243 335.201 265.382C335.268 265.515 335.365 265.684 335.492 265.889C335.625 266.089 335.719 266.227 335.775 266.301C335.827 266.371 335.874 266.435 335.918 266.494C335.967 266.549 336.061 266.612 336.198 266.685C336.216 266.687 336.24 266.691 336.268 266.695C336.301 266.695 336.33 266.694 336.354 266.693C336.375 266.71 336.413 266.757 336.469 266.831C336.521 266.901 336.55 266.962 336.557 267.016C336.563 267.069 336.521 267.13 336.43 267.197C336.382 267.233 336.343 267.258 336.312 267.273C336.287 267.284 336.26 267.287 336.232 267.283C336.208 267.284 336.173 267.277 336.128 267.26C336.087 267.25 336.029 267.239 335.954 267.228C335.903 267.216 335.849 267.198 335.79 267.175C335.733 267.143 335.682 267.114 335.638 267.089C335.552 267.029 335.464 266.949 335.373 266.85C335.288 266.747 335.234 266.68 335.21 266.648C335.198 266.632 335.157 266.566 335.088 266.451C335.015 266.331 334.925 266.182 334.818 266.005C334.71 265.827 334.591 265.617 334.459 265.374C334.333 265.127 334.243 264.949 334.187 264.841C333.917 265.092 333.656 265.345 333.405 265.599C333.149 265.847 332.879 266.103 332.593 266.366C332.765 266.687 332.89 266.922 332.969 267.071C333.052 267.217 333.131 267.362 333.205 267.506C333.285 267.646 333.355 267.768 333.416 267.873C333.479 267.967 333.52 268.028 333.54 268.055C333.564 268.087 333.612 268.146 333.685 268.233C333.764 268.316 333.825 268.382 333.871 268.432C333.907 268.447 333.938 268.444 333.965 268.424C333.991 268.404 334.025 268.388 334.065 268.374C334.094 268.369 334.149 268.399 334.231 268.463C334.317 268.523 334.37 268.567 334.39 268.593C334.466 268.695 334.482 268.778 334.439 268.844C334.401 268.914 334.36 268.965 334.317 268.997C334.167 269.109 334.011 269.138 333.847 269.086C333.683 269.033 333.53 268.952 333.389 268.841C333.254 268.725 333.137 268.608 333.04 268.49C332.949 268.367 332.893 268.292 332.873 268.265C332.758 268.11 332.632 267.908 332.497 267.66C332.363 267.402 332.236 267.143 332.117 266.883C331.994 266.617 331.881 266.377 331.779 266.162C331.673 265.942 331.6 265.793 331.558 265.715C331.523 265.634 331.484 265.526 331.441 265.391C331.404 265.252 331.365 265.132 331.322 265.031C331.245 264.872 331.165 264.719 331.082 264.574C330.998 264.428 330.929 264.28 330.875 264.129C330.851 264.064 330.831 263.992 330.814 263.913C330.792 263.829 330.773 263.748 330.756 263.669C330.738 263.6 330.707 263.531 330.665 263.463C330.622 263.395 330.581 263.322 330.54 263.244C330.502 263.139 330.455 263.02 330.399 262.888C330.347 262.752 330.304 262.622 330.27 262.498C330.243 262.384 330.244 262.301 330.27 262.248C330.303 262.19 330.348 262.14 330.407 262.096C330.508 262.02 330.604 262.003 330.693 262.045C330.788 262.082 330.853 262.125 330.889 262.173C330.905 262.195 330.936 262.275 330.982 262.416C331.033 262.552 331.095 262.718 331.166 262.914C331.239 263.101 331.315 263.303 331.393 263.519C331.471 263.735 331.55 263.93 331.629 264.103C331.687 264.26 331.734 264.383 331.768 264.474C331.802 264.565 331.851 264.686 331.915 264.838C331.951 264.953 331.998 265.084 332.058 265.231C332.117 265.378 332.18 265.522 332.245 265.665C332.298 265.625 332.359 265.58 332.429 265.528C332.494 265.471 332.557 265.415 332.617 265.362C332.678 265.309 332.732 265.265 332.78 265.229C332.829 265.184 332.865 265.153 332.886 265.137C332.897 265.129 332.941 265.088 333.018 265.013C333.097 264.93 333.189 264.841 333.293 264.746C333.403 264.648 333.506 264.546 333.602 264.441C333.694 264.331 333.77 264.237 333.829 264.16C333.853 264.125 333.861 264.086 333.853 264.042C333.802 263.872 333.73 263.709 333.639 263.553C333.551 263.369 333.49 263.231 333.456 263.141C333.427 263.046 333.372 262.912 333.293 262.738C333.259 262.647 333.216 262.546 333.166 262.434C333.112 262.316 333.061 262.192 333.013 262.061C332.965 261.931 332.918 261.8 332.87 261.669C332.828 261.534 332.788 261.414 332.751 261.309C332.744 261.289 332.718 261.242 332.671 261.168C332.63 261.091 332.591 261.004 332.552 260.908C332.519 260.808 332.497 260.712 332.487 260.62C332.482 260.524 332.504 260.458 332.552 260.422C332.584 260.398 332.64 260.385 332.722 260.383C332.803 260.38 332.872 260.378 332.93 260.377C332.968 260.44 333.015 260.509 333.071 260.584C333.128 260.649 333.17 260.705 333.197 260.752C333.415 261.246 333.632 261.749 333.848 262.262C334.06 262.769 334.254 263.207 334.429 263.575L334.458 263.616C334.489 263.568 334.539 263.518 334.609 263.466C334.68 263.405 334.746 263.343 334.807 263.281C334.87 263.209 334.926 263.15 334.976 263.105C335.025 263.06 335.061 263.029 335.082 263.013C335.141 262.97 335.206 262.95 335.276 262.956C335.343 262.956 335.399 262.964 335.444 262.98C335.491 262.987 335.528 262.997 335.554 263.011C335.577 263.019 335.598 263.036 335.618 263.063Z" fill="white"/>
<path d="M338.479 261.629C338.583 261.768 338.683 261.946 338.779 262.165C338.876 262.384 338.951 262.603 339.006 262.82C339.06 263.038 339.107 263.285 339.147 263.562C339.189 263.831 339.204 264.09 339.191 264.341C339.184 264.587 339.144 264.812 339.071 265.016C339.004 265.216 338.901 265.368 338.762 265.471C338.602 265.591 338.449 265.654 338.305 265.662C338.171 265.671 338.045 265.648 337.93 265.593C337.81 265.533 337.7 265.452 337.6 265.352C337.501 265.252 337.413 265.151 337.337 265.049C337.281 264.974 337.229 264.893 337.18 264.805C337.136 264.713 337.076 264.566 337.001 264.364C336.964 264.259 336.928 264.182 336.892 264.134C336.856 264.086 336.82 264.004 336.784 263.89C336.765 263.83 336.723 263.769 336.661 263.707C336.604 263.642 336.571 263.575 336.562 263.507C336.527 263.35 336.486 263.194 336.437 263.039C336.384 262.879 336.339 262.712 336.302 262.54C336.265 262.368 336.242 262.186 336.232 261.994C336.222 261.802 336.244 261.598 336.3 261.382C336.301 261.373 336.314 261.351 336.338 261.316C336.363 261.272 336.393 261.229 336.428 261.187C336.468 261.14 336.505 261.1 336.539 261.067C336.573 261.024 336.604 260.993 336.631 260.973C336.727 260.902 336.803 260.886 336.859 260.928C336.92 260.965 337.009 261.007 337.127 261.053C337.149 261.061 337.185 261.059 337.235 261.047C337.289 261.031 337.341 261.022 337.389 261.019C337.475 261.013 337.573 261.032 337.681 261.076C337.79 261.111 337.897 261.16 338.002 261.223C338.103 261.281 338.196 261.349 338.28 261.428C338.369 261.503 338.435 261.57 338.479 261.629ZM337.982 261.999C337.978 261.994 337.942 261.962 337.874 261.905C337.806 261.847 337.73 261.796 337.647 261.75C337.564 261.695 337.48 261.654 337.393 261.627C337.308 261.591 337.241 261.591 337.193 261.627C337.161 261.651 337.145 261.696 337.145 261.763C337.144 261.829 337.14 261.874 337.132 261.897C337.108 261.965 337.074 262.019 337.03 262.06C336.982 262.096 336.947 262.134 336.927 262.174C336.942 262.338 336.976 262.541 337.032 262.782C337.088 263.015 337.154 263.236 337.228 263.447C337.298 263.653 337.385 263.87 337.49 264.1C337.6 264.325 337.713 264.516 337.828 264.671C337.868 264.724 337.938 264.801 338.038 264.901C338.137 265.002 338.247 265.049 338.367 265.042C338.462 264.913 338.52 264.712 338.541 264.439C338.558 264.16 338.544 263.863 338.499 263.547C338.455 263.23 338.392 262.94 338.312 262.676C338.231 262.412 338.121 262.186 337.982 261.999Z" fill="white"/>
<path d="M341.136 258.812C341.147 258.828 341.171 258.865 341.205 258.923C341.245 258.976 341.282 259.031 341.317 259.089C341.353 259.137 341.376 259.186 341.388 259.235C341.406 259.28 341.425 259.34 341.448 259.415C341.453 259.445 341.453 259.478 341.448 259.515C341.447 259.549 341.446 259.591 341.443 259.643L341.315 259.739C341.272 259.737 341.228 259.733 341.181 259.726C341.14 259.716 341.107 259.694 341.083 259.662C340.967 259.54 340.868 259.44 340.784 259.361C340.702 259.273 340.576 259.188 340.407 259.106C340.365 259.162 340.335 259.239 340.316 259.336C340.293 259.428 340.281 259.524 340.281 259.624C340.277 259.719 340.28 259.812 340.29 259.904C340.302 259.987 340.312 260.05 340.32 260.094C340.371 260.397 340.43 260.677 340.497 260.934C340.565 261.192 340.652 261.443 340.759 261.687C340.79 261.773 340.837 261.887 340.902 262.03C340.963 262.167 341.021 262.307 341.077 262.448C341.125 262.546 341.181 262.637 341.244 262.723C341.308 262.808 341.362 262.892 341.408 262.975C341.458 263.054 341.48 263.129 341.475 263.199C341.475 263.266 341.435 263.329 341.354 263.389C341.28 263.445 341.187 263.488 341.078 263.52C340.974 263.548 340.884 263.511 340.808 263.409C340.725 263.297 340.638 263.142 340.548 262.943C340.459 262.734 340.358 262.51 340.246 262.27C340.129 262.024 340.002 261.77 339.864 261.507C339.727 261.234 339.569 260.978 339.39 260.737L338.916 260.068C338.888 260.031 338.857 259.995 338.824 259.962C338.792 259.919 338.757 259.883 338.719 259.853C338.676 259.819 338.646 259.778 338.629 259.733C338.612 259.688 338.615 259.631 338.639 259.563C338.649 259.531 338.68 259.495 338.734 259.455C338.783 259.41 338.821 259.378 338.848 259.358C338.95 259.282 339.038 259.262 339.114 259.296C339.195 259.327 339.266 259.383 339.326 259.463C339.381 259.538 339.423 259.611 339.451 259.681C339.479 259.752 339.511 259.812 339.547 259.86L339.726 260.1C339.657 259.785 339.648 259.51 339.696 259.274C339.741 259.033 339.873 258.831 340.092 258.667C340.311 258.504 340.513 258.457 340.698 258.527C340.883 258.597 341.029 258.692 341.136 258.812Z" fill="white"/>
<path d="M344.144 255.946C344.163 255.973 344.177 256.013 344.183 256.066C344.186 256.114 344.188 256.15 344.189 256.174C344.126 256.246 344.067 256.323 344.012 256.406C343.963 256.484 343.906 256.559 343.844 256.631C343.782 256.694 343.688 256.785 343.561 256.904C343.434 257.024 343.304 257.146 343.172 257.269C343.137 257.312 343.089 257.364 343.027 257.427C342.966 257.489 342.939 257.543 342.947 257.587C342.955 257.631 342.966 257.685 342.98 257.749C342.996 257.804 343.013 257.866 343.032 257.935C343.046 257.999 343.065 258.064 343.089 258.129C343.109 258.189 343.128 258.237 343.147 258.273C343.214 258.431 343.273 258.566 343.324 258.678C343.379 258.786 343.434 258.887 343.487 258.98C343.541 259.064 343.598 259.151 343.656 259.241C343.716 259.321 343.786 259.414 343.865 259.521C343.921 259.596 343.996 259.686 344.09 259.79C344.186 259.885 344.288 259.971 344.396 260.049C344.505 260.117 344.617 260.167 344.731 260.198C344.846 260.229 344.953 260.211 345.053 260.145C345.122 260.102 345.184 260.047 345.242 259.979C345.295 259.906 345.342 259.834 345.381 259.764C345.421 259.684 345.452 259.615 345.475 259.556C345.498 259.497 345.513 259.457 345.522 259.434C345.55 259.338 345.578 259.226 345.606 259.096C345.635 258.967 345.66 258.844 345.682 258.729C345.705 258.603 345.727 258.499 345.748 258.417C345.771 258.325 345.791 258.273 345.807 258.261L345.927 258.171C345.939 258.187 345.954 258.197 345.973 258.199C345.992 258.202 346.011 258.217 346.031 258.244C346.051 258.27 346.059 258.293 346.057 258.312C346.054 258.33 346.051 258.349 346.049 258.368C346.055 258.388 346.066 258.408 346.082 258.43C346.104 258.447 346.119 258.473 346.128 258.508C346.141 258.615 346.147 258.739 346.145 258.882C346.139 259.019 346.124 259.16 346.098 259.304C346.072 259.448 346.035 259.588 345.987 259.723C345.938 259.859 345.885 259.978 345.828 260.079C345.804 260.114 345.774 260.152 345.739 260.195C345.705 260.237 345.668 260.277 345.629 260.314C345.59 260.352 345.552 260.384 345.515 260.412C345.487 260.441 345.465 260.462 345.449 260.474C345.219 260.645 344.994 260.734 344.774 260.74C344.554 260.746 344.348 260.704 344.156 260.614C343.96 260.519 343.785 260.396 343.631 260.245C343.477 260.094 343.348 259.949 343.244 259.81C343.236 259.799 343.221 259.777 343.197 259.745C343.169 259.708 343.142 259.666 343.115 259.619C343.088 259.572 343.059 259.528 343.027 259.485C342.997 259.433 342.975 259.387 342.962 259.347C342.914 259.249 342.861 259.139 342.803 259.016C342.74 258.888 342.682 258.765 342.628 258.648C342.573 258.53 342.524 258.43 342.479 258.347C342.439 258.261 342.413 258.209 342.401 258.193C342.365 258.145 342.334 258.148 342.307 258.201C342.28 258.254 342.248 258.295 342.211 258.323C342.12 258.39 342.024 258.424 341.924 258.424C341.819 258.427 341.733 258.384 341.665 258.293C341.645 258.266 341.631 258.231 341.623 258.187C341.615 258.143 341.615 258.11 341.623 258.087C341.692 257.978 341.769 257.887 341.856 257.814C341.939 257.735 342.02 257.637 342.099 257.52C342.106 257.507 342.104 257.483 342.095 257.448C342.087 257.404 342.075 257.36 342.058 257.314C342.036 257.263 342.015 257.217 341.992 257.176C341.975 257.131 341.962 257.091 341.952 257.056C341.921 256.98 341.883 256.896 341.839 256.804C341.801 256.707 341.77 256.622 341.748 256.547C341.692 256.372 341.634 256.216 341.573 256.079C341.518 255.937 341.465 255.806 341.416 255.684C341.369 255.553 341.327 255.431 341.291 255.316C341.257 255.192 341.238 255.06 341.234 254.922C341.229 254.859 341.257 254.801 341.317 254.748C341.377 254.695 341.421 254.658 341.447 254.638C341.469 254.622 341.503 254.613 341.551 254.611C341.595 254.603 341.643 254.605 341.693 254.617C341.74 254.624 341.781 254.635 341.817 254.649C341.859 254.66 341.885 254.674 341.897 254.69C341.917 254.716 341.94 254.786 341.967 254.9C341.993 255.013 342.017 255.124 342.04 255.232C342.084 255.415 342.127 255.583 342.166 255.736C342.206 255.89 342.249 256.037 342.295 256.177C342.341 256.317 342.393 256.453 342.45 256.585C342.503 256.712 342.567 256.843 342.643 256.978C342.735 256.901 342.843 256.812 342.967 256.711C343.093 256.6 343.215 256.497 343.334 256.4C343.449 256.297 343.55 256.21 343.637 256.137C343.72 256.058 343.769 256.013 343.785 256.001C343.801 255.989 343.823 255.973 343.85 255.953C343.876 255.933 343.907 255.919 343.942 255.91C343.978 255.891 344.014 255.884 344.052 255.89C344.085 255.89 344.116 255.909 344.144 255.946Z" fill="white"/>
<path d="M347.491 254.846C347.594 254.985 347.694 255.164 347.791 255.383C347.888 255.602 347.646 255.061 347.7 255.278C347.754 255.496 347.692 255.616 347.732 255.894C347.774 256.162 347.712 257.331 347.7 257.582C347.692 257.829 347.772 257.523 347.7 257.727C347.633 257.927 347.806 256.943 347.732 257.471C347.572 257.59 347.461 258.872 347.317 258.88C347.182 258.889 347.057 258.866 346.941 258.811C346.821 258.75 346.712 258.67 346.612 258.57C346.512 258.47 346.424 258.369 346.349 258.267C346.293 258.192 346.24 258.111 346.191 258.023C346.148 257.93 346.088 257.784 346.013 257.582C345.976 257.477 345.939 257.4 345.903 257.352C345.867 257.304 345.832 257.222 345.796 257.107C345.776 257.047 345.735 256.987 345.673 256.925C345.615 256.86 345.582 256.793 345.573 256.725C345.539 256.567 345.497 256.411 345.448 256.256C345.396 256.096 345.351 255.93 345.314 255.758C345.277 255.586 345.254 255.404 345.243 255.212C345.233 255.02 345.256 254.816 345.311 254.6C345.313 254.591 345.325 254.569 345.349 254.534C345.375 254.49 345.405 254.447 345.44 254.404C345.48 254.358 345.517 254.318 345.55 254.285C345.585 254.242 345.616 254.211 345.642 254.191C345.739 254.119 345.944 253.959 346 254C345.883 253.954 346.061 254.038 346 254C346.012 253.879 346.451 254.012 346.5 254C346.555 253.984 346.61 254.104 346.658 254.102C346.745 254.095 346.584 254.25 346.692 254.294C346.801 254.329 346.909 254.378 347.014 254.441C347.115 254.499 347.207 254.567 347.291 254.646C347.38 254.721 347.447 254.788 347.491 254.846ZM346.993 255.217C346.989 255.212 346.954 255.18 346.886 255.123C346.818 255.065 346.742 255.013 346.658 254.968C346.576 254.913 346.491 254.872 346.405 254.845C346.319 254.809 346.253 254.809 346.205 254.845C346.172 254.869 346 254.933 346 255C346 255.067 346.051 255.123 346.043 255.146C346.019 255.214 346.044 255.104 346 255.146C345.952 255.182 345.959 255.352 345.939 255.392C345.953 255.556 345.988 255.759 346.043 256C346.1 256.232 346.165 256.454 346.239 256.665C346.309 256.87 346.397 257.088 346.501 257.317C346.611 257.543 346.724 257.733 346.84 257.888C346.88 257.942 346.949 258.019 347.049 258.119C347.149 258.219 347.371 257.929 347.491 257.923C347.586 257.794 347.532 257.93 347.552 257.657C347.569 257.378 347.555 257.081 347.511 256.764C347.467 256.448 347.404 256.158 347.324 255.894C347.243 255.63 347.133 255.404 346.993 255.217Z" fill="white"/>
</g>
</g>
<defs>
<filter id="filter0_b" x="305.282" y="220.55" width="61.5597" height="60.4968" filterUnits="userSpaceOnUse" color-interpolation-filters="sRGB">
<feFlood flood-opacity="0" result="BackgroundImageFix"/>
<feGaussianBlur in="BackgroundImage" stdDeviation="11.5"/>
<feComposite in2="SourceAlpha" operator="in" result="effect1_backgroundBlur"/>
<feBlend mode="normal" in="SourceGraphic" in2="effect1_backgroundBlur" result="shape"/>
</filter>
<filter id="filter1_b" x="306" y="228.272" width="66.5653" height="64.1559" filterUnits="userSpaceOnUse" color-interpolation-filters="sRGB">
<feFlood flood-opacity="0" result="BackgroundImageFix"/>
<feGaussianBlur in="BackgroundImage" stdDeviation="11.5"/>
<feComposite in2="SourceAlpha" operator="in" result="effect1_backgroundBlur"/>
<feBlend mode="normal" in="SourceGraphic" in2="effect1_backgroundBlur" result="shape"/>
</filter>
<linearGradient id="paint0_linear" x1="227.892" y1="160.481" x2="264.267" y2="313.22" gradientUnits="userSpaceOnUse">
<stop offset="0.01" stop-color="#1424DD" stop-opacity="0.51"/>
<stop offset="0.41" stop-color="#A9BDF7"/>
<stop offset="1" stop-color="#1D0A77"/>
</linearGradient>
<linearGradient id="paint1_linear" x1="113.802" y1="266.879" x2="77.8898" y2="202.45" gradientUnits="userSpaceOnUse">
<stop stop-color="#6956AB"/>
<stop offset="0.41" stop-color="#867FC0"/>
<stop offset="1" stop-color="#A4A8D5"/>
</linearGradient>
<linearGradient id="paint2_linear" x1="127.427" y1="267.071" x2="85.2308" y2="243.85" gradientUnits="userSpaceOnUse">
<stop stop-color="#6956AB"/>
<stop offset="0.41" stop-color="#867FC0"/>
<stop offset="1" stop-color="#A4A8D5"/>
</linearGradient>
<linearGradient id="paint3_linear" x1="106.208" y1="273.804" x2="124.371" y2="262.304" gradientUnits="userSpaceOnUse">
<stop stop-color="#666666"/>
<stop offset="0.41" stop-color="#414141"/>
<stop offset="1" stop-color="#1C1C1C"/>
</linearGradient>
<linearGradient id="paint4_linear" x1="338.439" y1="241.126" x2="338.411" y2="274.006" gradientUnits="userSpaceOnUse">
<stop stop-color="#FF4A4A"/>
</linearGradient>
<linearGradient id="paint5_linear" x1="275.577" y1="207.313" x2="193.173" y2="206.896" gradientUnits="userSpaceOnUse">
<stop stop-color="#348CFF"/>
<stop offset="0.41" stop-color="#7D6FFE"/>
<stop offset="1" stop-color="#6A60F9"/>
</linearGradient>
<linearGradient id="paint6_linear" x1="139.005" y1="210.741" x2="141.581" y2="270.157" gradientUnits="userSpaceOnUse">
<stop stop-color="#3997DE"/>
<stop offset="0.41" stop-color="#3574CD"/>
<stop offset="1" stop-color="#3150BC"/>
</linearGradient>
<clipPath id="clip0">
<rect width="458" height="327" fill="white"/>
</clipPath>
</defs>
</svg>
